<svg width="20" height="17" viewBox="0 0 20 17" fill="none" xmlns="http://www.w3.org/2000/svg">
<path id="Vector" d="M12.4522 0.425012C11.8797 -0.141671 10.9519 -0.141671 10.3794 0.425012C9.80712 0.991694 9.80712 1.91065 10.3794 2.47733L14.9961 7.04875H1.46559C0.656122 7.04875 0 7.69844 0 8.49997C0 9.30151 0.656122 9.9512 1.46559 9.9512H14.9961L10.3794 14.5226C9.80712 15.0893 9.80712 16.0083 10.3794 16.5749C10.6657 16.8583 11.0408 17 11.4158 17C11.7908 17 12.166 16.8583 12.4522 16.5749L19.5708 9.52613C20.1431 8.95945 20.1431 8.0405 19.5708 7.47381L12.4522 0.425012Z" fill="url(#paint0_linear_335_237)"/>
<defs>
<linearGradient id="paint0_linear_335_237" x1="1.50228" y1="17" x2="10" y2="17" gradientUnits="userSpaceOnUse">
<stop offset="0.0542986" stop-color="#3B84B6"/>
<stop offset="1" stop-color="#E49449"/>
</linearGradient>
</defs>
</svg>
